<?xml version="1.0" encoding="UTF-8"?>
<svg xmlns="http://www.w3.org/2000/svg" viewBox="0 0 800 800" version="1.1">
  <title>Cool Skull with Cigarette</title>
  <defs>
    <linearGradient id="smokeGradient" x1="0%" y1="0%" x2="0%" y2="100%">
      <stop offset="0%" style="stop-color:#ffffff;stop-opacity:1" />
      <stop offset="100%" style="stop-color:#ffffff;stop-opacity:0" />
    </linearGradient>
    <filter id="glow" x="-20%" y="-20%" width="140%" height="140%">
      <feGaussianBlur stdDeviation="5" result="blur" />
      <feComposite in="SourceGraphic" in2="blur" operator="over" />
    </filter>
  </defs>
  
  <!-- Background -->
  <rect width="800" height="800" fill="#000000" fill-opacity="0" />
  
  <!-- Skull base -->
  <path d="M400,120 C250,120 180,220 180,350 C180,450 230,500 240,530 C250,560 260,590 270,610 C280,630 310,650 340,660 L350,680 C350,700 370,710 400,710 C430,710 450,700 450,680 L460,660 C490,650 520,630 530,610 C540,590 550,560 560,530 C570,500 620,450 620,350 C620,220 550,120 400,120 Z" 
        fill="#ffffff" stroke="#000000" stroke-width="15" />
  
  <!-- Jaw -->
  <path d="M340,660 C340,680 360,700 400,700 C440,700 460,680 460,660 L450,640 L350,640 L340,660 Z" 
        fill="#ffffff" stroke="#000000" stroke-width="10" />
  
  <!-- Left eye socket -->
  <path d="M320,300 C270,300 250,340 250,380 C250,430 290,470 320,470 C350,470 380,440 380,390 C380,340 350,300 320,300 Z" 
        fill="#000000" stroke="#000000" stroke-width="8" />
  
  <!-- Right eye socket -->
  <path d="M480,300 C450,300 420,340 420,390 C420,440 450,470 480,470 C510,470 550,430 550,380 C550,340 530,300 480,300 Z" 
        fill="#000000" stroke="#000000" stroke-width="8" />
  
  <!-- Sunglasses -->
  <path d="M250,370 L320,350 L380,350 L420,350 L480,350 L550,370 L560,365 L480,340 L420,340 L400,340 L380,340 L320,340 L240,365 Z" 
        fill="#ff0000" stroke="#000000" stroke-width="5" />
  <path d="M250,370 C250,410 280,440 320,440 C360,440 380,410 380,370 L320,350 Z" 
        fill="#000000" stroke="#000000" stroke-width="3" />
  <path d="M420,370 C420,410 440,440 480,440 C520,440 550,410 550,370 L480,350 Z" 
        fill="#000000" stroke="#000000" stroke-width="3" />
  
  <!-- Nose hole -->
  <path d="M380,500 C380,520 400,540 400,540 C400,540 420,520 420,500 C420,480 410,470 400,470 C390,470 380,480 380,500 Z" 
        fill="#000000" stroke="#000000" stroke-width="5" />
  
  <!-- Upper mouth line -->
  <path d="M350,590 C370,600 430,600 450,590" 
        fill="none" stroke="#000000" stroke-width="5" stroke-linecap="round" />
        
  <!-- Teeth -->
  <path d="M350,640 L350,630 L370,630 L370,640 L350,640 Z M380,640 L380,630 L400,630 L400,640 L380,640 Z M410,640 L410,630 L430,630 L430,640 L410,640 Z M440,640 L440,630 L460,630 L460,640 L440,640 Z" 
        fill="#ffffff" stroke="#000000" stroke-width="3" />
  
  <!-- Cigarette - now connected to the mouth -->
  <rect x="385" y="580" width="100" height="20" fill="#ffffff" stroke="#000000" stroke-width="3" transform="rotate(15, 400, 580)" />
  <rect x="385" y="580" width="20" height="20" fill="#ff9900" stroke="#000000" stroke-width="3" transform="rotate(15, 400, 580)" />
  
  <!-- Smoke - adjusted to match new cigarette position -->
  <path d="M500,565 C510,555 515,540 510,530 C505,520 500,510 510,500 C520,490 530,485 525,475 C520,465 510,460 520,450" 
        fill="none" stroke="url(#smokeGradient)" stroke-width="8" stroke-linecap="round" opacity="0.7" transform="rotate(15, 400, 580)" />
  <path d="M500,560 C515,545 520,530 510,520 C500,510 505,500 515,490 C525,480 530,470 520,460" 
        fill="none" stroke="url(#smokeGradient)" stroke-width="5" stroke-linecap="round" opacity="0.5" transform="rotate(15, 400, 580)" />
  
  <!-- Cracks -->
  <path d="M400,120 L410,200 M430,130 L450,220 M370,130 L350,220" 
        fill="none" stroke="#000000" stroke-width="3" stroke-linecap="round" />
  
  <!-- Gold tooth -->
  <path d="M410,640 L410,630 L430,630 L430,640 L410,640 Z" 
        fill="#ffd700" stroke="#000000" stroke-width="3" />
</svg>